<svg id="Layer_1" data-name="Layer 1" xmlns="http://www.w3.org/2000/svg" xmlns:xlink="http://www.w3.org/1999/xlink" viewBox="0 0 965.56 90.38"><defs><linearGradient id="linear-gradient" x1="49.41" y1="44.41" x2="966.16" y2="44.41" gradientUnits="userSpaceOnUse"><stop offset="0" stop-color="#fff"/><stop offset="0" stop-color="#1a1a1a"/><stop offset="0.34" stop-color="#818081" stop-opacity="0.7"/><stop offset="1" stop-color="#fff"/></linearGradient><linearGradient id="linear-gradient-2" x1="39.41" y1="44.41" x2="956.16" y2="44.41" xlink:href="#linear-gradient"/><linearGradient id="linear-gradient-3" x1="29.41" y1="44.41" x2="946.16" y2="44.41" xlink:href="#linear-gradient"/><linearGradient id="linear-gradient-4" x1="19.41" y1="44.41" x2="936.16" y2="44.41" xlink:href="#linear-gradient"/><linearGradient id="linear-gradient-5" x1="9.41" y1="44.41" x2="926.16" y2="44.41" xlink:href="#linear-gradient"/><linearGradient id="linear-gradient-6" x1="-0.59" y1="44.41" x2="916.16" y2="44.41" xlink:href="#linear-gradient"/></defs><title>waveslong</title><path d="M456.85,44.86c1.18-2,18.24-29.38,50.44-29.75,32.54-.38,50.21,27.23,51.34,29.06m.19.34c1.19,2,18.42,29.26,50.62,29.42,32.54.15,50-27.58,51.16-29.42m101.58-.34c-1.13-1.83-18.8-29.44-51.34-29.06-32.2.37-49.26,27.8-50.44,29.75m102-.35c1.19,2,18.42,29.26,50.62,29.42,32.54.15,50-27.58,51.16-29.42M965.74,44c-1.13-1.83-18.8-29.43-51.34-29.06-32.2.38-49.27,27.8-50.44,29.76M355,44.3c1.18,2,18.42,29.26,50.62,29.41,32.54.15,50-27.58,51.15-29.41M354.94,44c-1.12-1.82-18.79-29.43-51.33-29.06-32.2.38-49.27,27.8-50.44,29.76m-101.5-.45c1.18,1.95,18.36,29.29,50.56,29.51,32.55.21,50.1-27.48,51.22-29.32m-101.84.13c-1.13-1.83-18.8-29.44-51.34-29.06-32.2.37-49.26,27.8-50.43,29.76" style="fill:none;stroke-miterlimit:10;stroke:url(#linear-gradient)"/><path d="M446.85,44.86c1.18-2,18.24-29.38,50.44-29.75,32.54-.38,50.21,27.23,51.34,29.06m.19.34c1.19,2,18.42,29.26,50.62,29.42,32.54.15,50-27.58,51.16-29.42m101.58-.34c-1.13-1.83-18.8-29.44-51.34-29.06-32.2.37-49.26,27.8-50.44,29.75m102-.35c1.19,2,18.42,29.26,50.62,29.42,32.54.15,50-27.58,51.16-29.42M955.74,44c-1.13-1.83-18.8-29.43-51.34-29.06-32.2.38-49.27,27.8-50.44,29.76M345,44.3c1.18,2,18.42,29.26,50.62,29.41,32.54.15,50-27.58,51.15-29.41M344.94,44c-1.12-1.82-18.79-29.43-51.33-29.06-32.2.38-49.27,27.8-50.44,29.76m-101.5-.45c1.18,1.95,18.36,29.29,50.56,29.51,32.55.21,50.1-27.48,51.22-29.32m-101.84.13c-1.13-1.83-18.8-29.44-51.34-29.06-32.2.37-49.26,27.8-50.43,29.76" style="fill:none;stroke-miterlimit:10;stroke:url(#linear-gradient-2)"/><path d="M436.85,44.86c1.18-2,18.24-29.38,50.44-29.75,32.54-.38,50.21,27.23,51.34,29.06m.19.34c1.19,2,18.42,29.26,50.62,29.42,32.54.15,50-27.58,51.16-29.42m101.58-.34c-1.13-1.83-18.8-29.44-51.34-29.06-32.2.37-49.26,27.8-50.44,29.75m102-.35c1.19,2,18.42,29.26,50.62,29.42,32.54.15,50-27.58,51.16-29.42M945.74,44c-1.13-1.83-18.8-29.43-51.34-29.06-32.2.38-49.27,27.8-50.44,29.76M335,44.3c1.18,2,18.42,29.26,50.62,29.41,32.54.15,50-27.58,51.15-29.41M334.94,44c-1.12-1.82-18.79-29.43-51.33-29.06-32.2.38-49.27,27.8-50.44,29.76m-101.5-.45c1.18,1.95,18.36,29.29,50.56,29.51,32.55.21,50.1-27.48,51.22-29.32m-101.84.13c-1.13-1.83-18.8-29.44-51.34-29.06-32.2.37-49.26,27.8-50.43,29.76" style="fill:none;stroke-miterlimit:10;stroke:url(#linear-gradient-3)"/><path d="M426.85,44.86c1.18-2,18.24-29.38,50.44-29.75,32.54-.38,50.21,27.23,51.34,29.06m.19.34c1.19,2,18.42,29.26,50.62,29.42,32.54.15,50-27.58,51.16-29.42m101.58-.34c-1.13-1.83-18.8-29.44-51.34-29.06-32.2.37-49.26,27.8-50.44,29.75m102-.35c1.19,2,18.42,29.26,50.62,29.42,32.54.15,50-27.58,51.16-29.42M935.74,44c-1.13-1.83-18.8-29.43-51.34-29.06-32.2.38-49.27,27.8-50.44,29.76M325,44.3c1.18,2,18.42,29.26,50.62,29.41,32.54.15,50-27.58,51.15-29.41M324.94,44c-1.12-1.82-18.79-29.43-51.33-29.06-32.2.38-49.27,27.8-50.44,29.76m-101.5-.45c1.18,1.95,18.36,29.29,50.56,29.51,32.55.21,50.1-27.48,51.22-29.32m-101.84.13c-1.13-1.83-18.8-29.44-51.34-29.06-32.2.37-49.26,27.8-50.43,29.76" style="fill:none;stroke-miterlimit:10;stroke:url(#linear-gradient-4)"/><path d="M416.85,44.86c1.18-2,18.24-29.38,50.44-29.75,32.54-.38,50.21,27.23,51.34,29.06m.19.34c1.19,2,18.42,29.26,50.62,29.42,32.54.15,50-27.58,51.16-29.42m101.58-.34c-1.13-1.83-18.8-29.44-51.34-29.06-32.2.37-49.26,27.8-50.44,29.75m102-.35c1.19,2,18.42,29.26,50.62,29.42,32.54.15,50-27.58,51.16-29.42M925.74,44c-1.13-1.83-18.8-29.43-51.34-29.06-32.2.38-49.27,27.8-50.44,29.76M315,44.3c1.18,2,18.42,29.26,50.62,29.41,32.54.15,50-27.58,51.15-29.41M314.94,44c-1.12-1.82-18.79-29.43-51.33-29.06-32.2.38-49.27,27.8-50.44,29.76m-101.5-.45c1.18,1.95,18.36,29.29,50.56,29.51,32.55.21,50.1-27.48,51.22-29.32m-101.84.13c-1.13-1.83-18.8-29.44-51.34-29.06C28.07,15.83,11,43.26,9.84,45.22" style="fill:none;stroke-miterlimit:10;stroke:url(#linear-gradient-5)"/><path d="M406.85,44.86c1.18-2,18.24-29.38,50.44-29.75,32.54-.38,50.21,27.23,51.34,29.06m.19.34c1.19,2,18.42,29.26,50.62,29.42,32.54.15,50-27.58,51.16-29.42m101.58-.34c-1.13-1.83-18.8-29.44-51.34-29.06-32.2.37-49.26,27.8-50.44,29.75m102-.35c1.19,2,18.42,29.26,50.62,29.42,32.54.15,50-27.58,51.16-29.42M915.74,44c-1.13-1.83-18.8-29.43-51.34-29.06-32.2.38-49.27,27.8-50.44,29.76M305,44.3c1.18,2,18.42,29.26,50.62,29.41,32.54.15,50-27.58,51.15-29.41M304.94,44c-1.12-1.82-18.79-29.43-51.33-29.06-32.2.38-49.27,27.8-50.44,29.76m-101.5-.45c1.18,1.95,18.36,29.29,50.56,29.51,32.55.21,50.1-27.48,51.22-29.32m-101.84.13c-1.13-1.83-18.8-29.44-51.34-29.06C18.07,15.83,1,43.26-.16,45.22" style="fill:none;stroke-miterlimit:10;stroke:url(#linear-gradient-6)"/></svg>