<svg id="Layer_1" data-name="Layer 1" xmlns="http://www.w3.org/2000/svg" xmlns:xlink="http://www.w3.org/1999/xlink" viewBox="0 0 999.96 105"><defs><linearGradient id="linear-gradient" x1="100" y1="52.31" x2="1000.56" y2="52.31" gradientUnits="userSpaceOnUse"><stop offset="0" stop-color="#fff"/><stop offset="0"/><stop offset="0.14" stop-color="#656565"/><stop offset="1" stop-color="#fff"/></linearGradient><linearGradient id="linear-gradient-2" x1="80" y1="52.31" x2="980.56" y2="52.31" xlink:href="#linear-gradient"/><linearGradient id="linear-gradient-3" x1="60" y1="52.31" x2="960.56" y2="52.31" xlink:href="#linear-gradient"/><linearGradient id="linear-gradient-4" x1="40" y1="52.31" x2="940.56" y2="52.31" xlink:href="#linear-gradient"/><linearGradient id="linear-gradient-5" x1="20" y1="52.31" x2="920.56" y2="52.31" xlink:href="#linear-gradient"/><linearGradient id="linear-gradient-6" x1="0" y1="52.31" x2="900.56" y2="52.31" xlink:href="#linear-gradient"/></defs><title>waves4</title><path d="M100.43,53.12c2.07-3.46,32.24-52,89.17-52.61,57.53-.67,88.77,48.14,90.76,51.38m.35.61c2.09,3.45,32.56,51.73,89.5,52,57.53.27,88.47-48.75,90.44-52m179.59-.61c-2-3.24-33.23-52-90.76-51.38-56.93.65-87.1,49.15-89.17,52.61m180.28-.62c2.09,3.45,32.56,51.73,89.49,52,57.54.27,88.48-48.75,90.45-52m179.61-1c-2-3.23-33.23-52-90.76-51.38-56.93.66-87.11,49.15-89.18,52.61" style="fill:none;stroke-miterlimit:10;stroke:url(#linear-gradient)"/><path d="M80.43,53.12c2.07-3.46,32.24-52,89.17-52.61,57.53-.67,88.77,48.14,90.76,51.38m.35.61c2.09,3.45,32.56,51.73,89.5,52,57.53.27,88.47-48.75,90.44-52m179.59-.61c-2-3.24-33.23-52-90.76-51.38-56.93.65-87.1,49.15-89.17,52.61m180.28-.62c2.09,3.45,32.56,51.73,89.49,52,57.54.27,88.48-48.75,90.45-52m179.61-1c-2-3.23-33.23-52-90.76-51.38-56.93.66-87.11,49.15-89.18,52.61" style="fill:none;stroke-miterlimit:10;stroke:url(#linear-gradient-2)"/><path d="M60.43,53.12C62.5,49.66,92.67,1.16,149.6.51c57.53-.67,88.77,48.14,90.76,51.38m.35.61c2.09,3.45,32.56,51.73,89.5,52,57.53.27,88.47-48.75,90.44-52m179.59-.61c-2-3.24-33.23-52-90.76-51.38-56.93.65-87.1,49.15-89.17,52.61m180.28-.62c2.09,3.45,32.56,51.73,89.49,52,57.54.27,88.48-48.75,90.45-52m179.61-1c-2-3.23-33.23-52-90.76-51.38-56.93.66-87.11,49.15-89.18,52.61" style="fill:none;stroke-miterlimit:10;stroke:url(#linear-gradient-3)"/><path d="M40.43,53.12C42.5,49.66,72.67,1.16,129.6.51c57.53-.67,88.77,48.14,90.76,51.38m.35.61c2.09,3.45,32.56,51.73,89.5,52,57.53.27,88.47-48.75,90.44-52m179.59-.61c-2-3.24-33.23-52-90.76-51.38-56.93.65-87.1,49.15-89.17,52.61m180.28-.62c2.09,3.45,32.56,51.73,89.49,52,57.54.27,88.48-48.75,90.45-52m179.61-1c-2-3.23-33.23-52-90.76-51.38-56.93.66-87.11,49.15-89.18,52.61" style="fill:none;stroke-miterlimit:10;stroke:url(#linear-gradient-4)"/><path d="M20.43,53.12C22.5,49.66,52.67,1.16,109.6.51c57.53-.67,88.77,48.14,90.76,51.38m.35.61c2.09,3.45,32.56,51.73,89.5,52,57.53.27,88.47-48.75,90.44-52m179.59-.61c-2-3.24-33.23-52-90.76-51.38-56.93.65-87.1,49.15-89.17,52.61m180.28-.62c2.09,3.45,32.56,51.73,89.49,52,57.54.27,88.48-48.75,90.45-52m179.61-1c-2-3.23-33.23-52-90.76-51.38-56.93.66-87.11,49.15-89.18,52.61" style="fill:none;stroke-miterlimit:10;stroke:url(#linear-gradient-5)"/><path d="M.43,53.12C2.5,49.66,32.67,1.16,89.6.51c57.53-.67,88.77,48.14,90.76,51.38m.35.61c2.09,3.45,32.56,51.73,89.5,52,57.53.27,88.47-48.75,90.44-52m179.59-.61c-2-3.24-33.23-52-90.76-51.38-56.93.65-87.1,49.15-89.17,52.61m180.28-.62c2.09,3.45,32.56,51.73,89.49,52,57.54.27,88.48-48.75,90.45-52m179.61-1c-2-3.23-33.23-52-90.76-51.38-56.93.66-87.11,49.15-89.18,52.61" style="fill:none;stroke-miterlimit:10;stroke:url(#linear-gradient-6)"/></svg>