<?xml version="1.0" encoding="utf-8"?>
<!-- Generator: Adobe Illustrator 24.0.2, SVG Export Plug-In . SVG Version: 6.00 Build 0)  -->
<svg version="1.1" id="Layer_1" xmlns="http://www.w3.org/2000/svg" xmlns:xlink="http://www.w3.org/1999/xlink" x="0px" y="0px"
	 viewBox="0 0 600 600" style="enable-background:new 0 0 600 600;" xml:space="preserve">
<style type="text/css">
	.st0{fill:#4D4D4D;}
	.st1{fill:#FFFFFF;}
</style>
<title>Expand</title>
<path class="st0" d="M300,599.5C134.6,599.5,0.5,465.4,0.5,300c0-79.4,31.6-155.6,87.7-211.8c117-117,306.6-117,423.6,0
	s117,306.6,0,423.6C455.7,568.1,379.5,599.7,300,599.5z"/>
<path d="M300,1c165.2,0.1,299,134.1,298.9,299.3c-0.1,120-71.9,228.4-182.5,275.2c-152.2,64.3-327.6-7-391.9-159.1
	s7-327.6,159.1-391.9C220.4,8.9,260,0.9,300,1 M300,0C134.3,0,0,134.3,0,300s134.3,300,300,300s300-134.3,300-300S465.7,0,300,0z"/>
<path class="st1" d="M513.5,353h-214c-29.5,0-53.5-24-53.5-53.5c0-29.5,24-53.5,53.5-53.5h214c29.5,0,53.5,24,53.5,53.5
	C567,329,543,353,513.5,353z"/>
<path class="st1" d="M300,567c-29.5,0-53.4-23.9-53.5-53.4l-0.5-214c-0.1-29.5,23.8-53.6,53.4-53.6c0,0,0.1,0,0.1,0
	c29.5,0,53.4,23.9,53.5,53.4l0.5,214c0.1,29.5-23.8,53.6-53.4,53.6C300.1,567,300,567,300,567z"/>
<path class="st1" d="M85.5,353.5c-29.5,0-53.4-23.9-53.5-53.4c-0.1-29.5,23.8-53.6,53.4-53.6l214-0.5c0,0,0.1,0,0.1,0
	c29.5,0,53.4,23.9,53.5,53.4c0.1,29.5-23.8,53.6-53.4,53.6l-214,0.5C85.6,353.5,85.5,353.5,85.5,353.5z"/>
<path class="st1" d="M299.5,353c-0.1,0-0.1,0-0.2,0c-29.5-0.1-53.4-24.1-53.3-53.7l0.7-214c0.1-29.5,24-53.3,53.5-53.3
	c0.1,0,0.1,0,0.2,0c29.5,0.1,53.4,24.1,53.3,53.7l-0.7,214C352.9,329.2,329,353,299.5,353z"/>
<rect x="102" y="127" class="st1" width="77.5" height="77.5"/>
</svg>
