<?xml version="1.0" encoding="utf-8"?>
<!-- Generator: Adobe Illustrator 24.0.2, SVG Export Plug-In . SVG Version: 6.00 Build 0)  -->
<svg version="1.0" id="Layer_1" xmlns="http://www.w3.org/2000/svg" xmlns:xlink="http://www.w3.org/1999/xlink" x="0px" y="0px"
	 viewBox="0 0 346.9 13" style="enable-background:new 0 0 346.9 13;" xml:space="preserve">
<style type="text/css">
	.st0{fill:#4D4D4D;}
	.st1{fill:#FFFFFF;}
</style>
<title>Expand</title>
<path class="st0" d="M176.2,305.5C10.8,305.5-123.3,171.4-123.3,6c0-79.4,31.6-155.6,87.7-211.8c117-117,306.6-117,423.6,0
	s117,306.6,0,423.6C331.9,274.2,255.7,305.7,176.2,305.5z"/>
<path d="M176.2-293c165.2,0.1,299,134.1,298.9,299.3c-0.1,120-71.9,228.4-182.5,275.2c-152.2,64.3-327.6-7-391.9-159.1
	s7-327.6,159.1-391.9C96.6-285.1,136.2-293.1,176.2-293 M176.2-294c-165.7,0-300,134.3-300,300s134.3,300,300,300s300-134.3,300-300
	S341.9-294,176.2-294z"/>
<path class="st1" d="M389.7,59h-214c-29.5,0-53.5-24-53.5-53.5c0-29.5,24-53.5,53.5-53.5h214c29.5,0,53.5,24,53.5,53.5
	C443.2,35.1,419.2,59,389.7,59z"/>
<path class="st1" d="M176.2,273c-29.5,0-53.4-23.9-53.5-53.4l-0.5-214C122.1-23.9,146-47.9,175.6-48c0,0,0.1,0,0.1,0
	c29.5,0,53.4,23.9,53.5,53.4l0.5,214c0.1,29.5-23.8,53.6-53.4,53.6C176.2,273,176.2,273,176.2,273z"/>
<path class="st1" d="M-38.3,59.5c-29.5,0-53.4-23.9-53.5-53.4C-91.9-23.4-68-47.4-38.5-47.5l214-0.5c0,0,0.1,0,0.1,0
	c29.5,0,53.4,23.9,53.5,53.4c0.1,29.5-23.8,53.6-53.4,53.6l-214,0.5C-38.2,59.5-38.3,59.5-38.3,59.5z"/>
<path class="st1" d="M175.7,59c-0.1,0-0.1,0-0.2,0c-29.5-0.1-53.4-24.1-53.3-53.7l0.7-214c0.1-29.5,24-53.3,53.5-53.3
	c0.1,0,0.1,0,0.2,0c29.5,0.1,53.4,24.1,53.3,53.7l-0.7,214C229.1,35.2,205.1,59,175.7,59z"/>
</svg>
