<svg id="Layer_1" data-name="Layer 1" xmlns="http://www.w3.org/2000/svg" viewBox="0 0 600 600"><defs><style>.cls-1{fill:#4d4d4d;}.cls-2{fill:#fff;}</style></defs><title>Expand6</title><path class="cls-1" d="M300,599.5C134.59,599.5.5,465.41.5,300A299.5,299.5,0,0,1,88.22,88.22c117-117,306.6-117,423.56,0s117,306.6,0,423.56A297.52,297.52,0,0,1,300,599.5Z"/><path d="M300,1c165.18.11,299,134.11,298.87,299.29A299.07,299.07,0,0,1,416.38,575.5c-152.15,64.27-327.61-7-391.88-159.12s7-327.61,159.12-391.88A297.12,297.12,0,0,1,300,1m0-1C134.31,0,0,134.31,0,300S134.31,600,300,600,600,465.69,600,300,465.69,0,300,0Z"/><path class="cls-2" d="M513.5,353h-214a53.5,53.5,0,0,1,0-107h214a53.5,53.5,0,0,1,0,107Z"/><path class="cls-2" d="M300,567a53.5,53.5,0,0,1-53.5-53.38l-.48-214A53.5,53.5,0,0,1,299.38,246h.12A53.5,53.5,0,0,1,353,299.38l.48,214A53.5,53.5,0,0,1,300.1,567Z"/><path class="cls-2" d="M85.5,353.52a53.5,53.5,0,0,1-.13-107l214-.52h.13a53.5,53.5,0,0,1,.13,107l-214,.52Z"/><path class="cls-2" d="M299.5,353h-.17A53.5,53.5,0,0,1,246,299.33l.68-214A53.5,53.5,0,0,1,300.18,32h.17a53.5,53.5,0,0,1,53.33,53.67l-.68,214A53.5,53.5,0,0,1,299.5,353Z"/><rect x="102" y="127" width="77.5" height="77.5"/></svg>