<svg id="Layer_1" data-name="Layer 1" xmlns="http://www.w3.org/2000/svg" xmlns:xlink="http://www.w3.org/1999/xlink" viewBox="0 0 2085.44 869.78"><defs><linearGradient id="linear-gradient" x1="390.31" y1="222.71" x2="571.16" y2="222.71" gradientUnits="userSpaceOnUse"><stop offset="0" stop-color="#fff"/><stop offset="0" stop-color="#ababab"/><stop offset="0" stop-color="#fff"/><stop offset="0"/><stop offset="1" stop-color="#878787"/></linearGradient><linearGradient id="linear-gradient-2" x1="570.65" y1="274.64" x2="751.51" y2="274.64" xlink:href="#linear-gradient"/><linearGradient id="linear-gradient-3" x1="750.31" y1="222.71" x2="931.16" y2="222.71" xlink:href="#linear-gradient"/><linearGradient id="linear-gradient-4" x1="930.65" y1="274.64" x2="1111.51" y2="274.64" xlink:href="#linear-gradient"/><linearGradient id="linear-gradient-5" x1="1110.31" y1="222.71" x2="1291.16" y2="222.71" xlink:href="#linear-gradient"/><linearGradient id="linear-gradient-6" x1="481.61" y1="416.46" x2="1382.18" y2="416.46" gradientUnits="userSpaceOnUse"><stop offset="0" stop-color="#fff"/><stop offset="0" stop-color="#404040"/><stop offset="0.22" stop-color="#656565"/><stop offset="1" stop-color="#fff"/></linearGradient><linearGradient id="linear-gradient-7" x1="461.61" y1="416.46" x2="1362.18" y2="416.46" xlink:href="#linear-gradient-6"/><linearGradient id="linear-gradient-8" x1="441.61" y1="416.46" x2="1342.18" y2="416.46" xlink:href="#linear-gradient-6"/><linearGradient id="linear-gradient-9" x1="421.61" y1="416.46" x2="1322.18" y2="416.46" xlink:href="#linear-gradient-6"/><linearGradient id="linear-gradient-10" x1="401.61" y1="416.46" x2="1302.18" y2="416.46" xlink:href="#linear-gradient-6"/><linearGradient id="linear-gradient-11" x1="381.61" y1="416.46" x2="1282.18" y2="416.46" xlink:href="#linear-gradient-6"/><linearGradient id="linear-gradient-12" x1="49.41" y1="639.8" x2="966.16" y2="639.8" gradientUnits="userSpaceOnUse"><stop offset="0" stop-color="#fff"/><stop offset="0" stop-color="#1a1a1a"/><stop offset="0.34" stop-color="#818081" stop-opacity="0.7"/><stop offset="1" stop-color="#fff"/></linearGradient><linearGradient id="linear-gradient-13" x1="39.41" y1="639.8" x2="956.16" y2="639.8" xlink:href="#linear-gradient-12"/><linearGradient id="linear-gradient-14" x1="29.41" y1="639.8" x2="946.16" y2="639.8" xlink:href="#linear-gradient-12"/><linearGradient id="linear-gradient-15" x1="19.41" y1="639.8" x2="936.16" y2="639.8" xlink:href="#linear-gradient-12"/><linearGradient id="linear-gradient-16" x1="9.41" y1="639.8" x2="926.16" y2="639.8" xlink:href="#linear-gradient-12"/><linearGradient id="linear-gradient-17" x1="-0.59" y1="639.8" x2="916.16" y2="639.8" xlink:href="#linear-gradient-12"/><linearGradient id="linear-gradient-18" x1="112.47" y1="1047.34" x2="1112.47" y2="1047.34" gradientTransform="matrix(0, 0.04, -1, -0.03, 1048.52, 589.49)" xlink:href="#linear-gradient-12"/><linearGradient id="linear-gradient-19" x1="4119.04" y1="1042.84" x2="5119.04" y2="1042.84" gradientTransform="matrix(0, 0.04, -1, -0.03, 1048.52, 589.49)" xlink:href="#linear-gradient-12"/><linearGradient id="linear-gradient-20" x1="235.61" y1="30.02" x2="948.8" y2="30.02" gradientUnits="userSpaceOnUse"><stop offset="0" stop-color="#fff"/><stop offset="0" stop-color="#1a1a1a"/><stop offset="0.34" stop-color="#818081" stop-opacity="0.7"/><stop offset="0.8" stop-color="#e5e4e5" stop-opacity="0.96"/><stop offset="1" stop-color="#fff"/></linearGradient><linearGradient id="linear-gradient-21" x1="225.61" y1="30.02" x2="938.8" y2="30.02" xlink:href="#linear-gradient-20"/><linearGradient id="linear-gradient-22" x1="215.61" y1="30.02" x2="928.8" y2="30.02" xlink:href="#linear-gradient-20"/><linearGradient id="linear-gradient-23" x1="205.61" y1="30.02" x2="918.8" y2="30.02" xlink:href="#linear-gradient-20"/><linearGradient id="linear-gradient-24" x1="195.61" y1="30.02" x2="908.8" y2="30.02" xlink:href="#linear-gradient-20"/><linearGradient id="linear-gradient-25" x1="185.61" y1="30.02" x2="898.8" y2="30.02" xlink:href="#linear-gradient-20"/><linearGradient id="linear-gradient-26" x1="310.7" y1="817.1" x2="1211.27" y2="817.1" xlink:href="#linear-gradient-6"/><linearGradient id="linear-gradient-27" x1="290.7" y1="817.1" x2="1191.27" y2="817.1" xlink:href="#linear-gradient-6"/><linearGradient id="linear-gradient-28" x1="270.7" y1="817.1" x2="1171.27" y2="817.1" xlink:href="#linear-gradient-6"/><linearGradient id="linear-gradient-29" x1="250.7" y1="817.1" x2="1151.27" y2="817.1" xlink:href="#linear-gradient-6"/><linearGradient id="linear-gradient-30" x1="230.7" y1="817.1" x2="1131.27" y2="817.1" xlink:href="#linear-gradient-6"/><linearGradient id="linear-gradient-31" x1="210.7" y1="817.1" x2="1111.27" y2="817.1" xlink:href="#linear-gradient-6"/></defs><title>waves_long1</title><path d="M390.74,249.14c2.07-3.47,32.25-52,89.2-52.62,57.55-.66,88.8,48.15,90.79,51.38" transform="translate(703.26)" style="fill:#fff;stroke-miterlimit:10;stroke:url(#linear-gradient)"/><path d="M571.08,248.52c2.09,3.45,32.57,51.73,89.52,52,57.56.27,88.51-48.75,90.48-52" transform="translate(703.26)" style="fill:#fff;stroke-miterlimit:10;stroke:url(#linear-gradient-2)"/><path d="M750.74,249.14c2.07-3.47,32.25-52,89.2-52.62,57.55-.66,88.8,48.15,90.79,51.38" transform="translate(703.26)" style="fill:#fff;stroke-miterlimit:10;stroke:url(#linear-gradient-3)"/><path d="M931.08,248.52c2.09,3.45,32.57,51.73,89.53,52,57.55.27,88.5-48.75,90.47-52" transform="translate(703.26)" style="fill:#fff;stroke-miterlimit:10;stroke:url(#linear-gradient-4)"/><path d="M1110.74,249.14c2.07-3.47,32.26-52,89.2-52.62,57.55-.66,88.8,48.15,90.8,51.38" transform="translate(703.26)" style="fill:#fff;stroke-miterlimit:10;stroke:url(#linear-gradient-5)"/><path d="M498.76,233.52" transform="translate(703.26)" style="fill:#fff"/><path d="M498.76,233.52" transform="translate(703.26)" style="fill:none;stroke:#fff;stroke-miterlimit:10"/><line x1="1059.5" y1="257.52" x2="1431.5" y2="257.52" style="fill:none;stroke:#5e5e5e;stroke-miterlimit:10"/><path d="M482,417.26c2.07-3.46,32.25-51.95,89.18-52.61C628.75,364,660,412.79,662,416m.34.61c2.1,3.45,32.57,51.74,89.5,52,57.53.27,88.47-48.75,90.44-52m179.6-.61c-2-3.24-33.23-52-90.76-51.38-56.93.66-87.11,49.15-89.18,52.61m180.28-.62c2.09,3.45,32.57,51.74,89.5,52,57.53.27,88.47-48.75,90.44-52m179.61-1c-2-3.23-33.23-52-90.76-51.38-56.93.66-87.1,49.15-89.17,52.62" transform="translate(703.26)" style="fill:none;stroke-miterlimit:10;stroke:url(#linear-gradient-6)"/><path d="M462,417.26c2.07-3.46,32.25-51.95,89.18-52.61C608.75,364,640,412.79,642,416m.34.61c2.1,3.45,32.57,51.74,89.5,52,57.53.27,88.47-48.75,90.44-52m179.6-.61c-2-3.24-33.23-52-90.76-51.38-56.93.66-87.11,49.15-89.18,52.61m180.28-.62c2.09,3.45,32.57,51.74,89.5,52,57.53.27,88.47-48.75,90.44-52m179.61-1c-2-3.23-33.23-52-90.76-51.38-56.93.66-87.1,49.15-89.17,52.62" transform="translate(703.26)" style="fill:none;stroke-miterlimit:10;stroke:url(#linear-gradient-7)"/><path d="M442,417.26c2.07-3.46,32.25-51.95,89.18-52.61C588.75,364,620,412.79,622,416m.34.61c2.1,3.45,32.57,51.74,89.5,52,57.53.27,88.47-48.75,90.44-52m179.6-.61c-2-3.24-33.23-52-90.76-51.38-56.93.66-87.11,49.15-89.18,52.61m180.28-.62c2.09,3.45,32.57,51.74,89.5,52,57.53.27,88.47-48.75,90.44-52m179.61-1c-2-3.23-33.23-52-90.76-51.38-56.93.66-87.1,49.15-89.17,52.62" transform="translate(703.26)" style="fill:none;stroke-miterlimit:10;stroke:url(#linear-gradient-8)"/><path d="M422,417.26c2.07-3.46,32.25-51.95,89.18-52.61C568.75,364,600,412.79,602,416m.34.61c2.1,3.45,32.57,51.74,89.5,52,57.53.27,88.47-48.75,90.44-52m179.6-.61c-2-3.24-33.23-52-90.76-51.38-56.93.66-87.11,49.15-89.18,52.61m180.28-.62c2.09,3.45,32.57,51.74,89.5,52,57.53.27,88.47-48.75,90.44-52m179.61-1c-2-3.23-33.23-52-90.76-51.38-56.93.66-87.1,49.15-89.17,52.62" transform="translate(703.26)" style="fill:none;stroke-miterlimit:10;stroke:url(#linear-gradient-9)"/><path d="M402,417.26c2.07-3.46,32.25-51.95,89.18-52.61C548.75,364,580,412.79,582,416m.34.61c2.1,3.45,32.57,51.74,89.5,52,57.53.27,88.47-48.75,90.44-52m179.6-.61c-2-3.24-33.23-52-90.76-51.38-56.93.66-87.11,49.15-89.18,52.61m180.28-.62c2.09,3.45,32.57,51.74,89.5,52,57.53.27,88.47-48.75,90.44-52m179.61-1c-2-3.23-33.23-52-90.76-51.38-56.93.66-87.1,49.15-89.17,52.62" transform="translate(703.26)" style="fill:none;stroke-miterlimit:10;stroke:url(#linear-gradient-10)"/><path d="M382,417.26c2.07-3.46,32.25-51.95,89.18-52.61C528.75,364,560,412.79,562,416m.34.61c2.1,3.45,32.57,51.74,89.5,52,57.53.27,88.47-48.75,90.44-52m179.6-.61c-2-3.24-33.23-52-90.76-51.38-56.93.66-87.11,49.15-89.18,52.61m180.28-.62c2.09,3.45,32.57,51.74,89.5,52,57.53.27,88.47-48.75,90.44-52m179.61-1c-2-3.23-33.23-52-90.76-51.38-56.93.66-87.1,49.15-89.17,52.62" transform="translate(703.26)" style="fill:none;stroke-miterlimit:10;stroke:url(#linear-gradient-11)"/><text transform="translate(1439.28 518.52)" style="font-size:12px;font-family:MyriadPro-Regular, Myriad Pro">~@/assets/img/s<tspan x="82.64" y="0" style="letter-spacing:-0.009928385416666666em">v</tspan><tspan x="88.29" y="0">g</tspan></text><text transform="translate(1439.28 518.52)" style="font-size:12px;font-family:MyriadPro-Regular, Myriad Pro">~@/assets/img/s<tspan x="82.64" y="0" style="letter-spacing:-0.009928385416666666em">v</tspan><tspan x="88.29" y="0">g</tspan></text><text transform="translate(1439.28 518.52)" style="font-size:12px;font-family:MyriadPro-Regular, Myriad Pro">~@/assets/img/s<tspan x="82.64" y="0" style="letter-spacing:-0.009928385416666666em">v</tspan><tspan x="88.29" y="0">g</tspan></text><path d="M456.85,640.26c1.18-2,18.24-29.39,50.44-29.76,32.54-.38,50.21,27.23,51.34,29.06m.19.35c1.19,2,18.42,29.26,50.62,29.41,32.54.15,50-27.58,51.16-29.41m101.58-.35c-1.13-1.83-18.8-29.44-51.34-29.06-32.2.37-49.26,27.8-50.44,29.76m102-.35c1.19,2,18.42,29.26,50.62,29.41,32.54.15,50-27.58,51.16-29.41m101.59-.56c-1.13-1.83-18.8-29.44-51.34-29.06-32.2.37-49.27,27.8-50.44,29.75m-509-.35c1.18,1.95,18.42,29.26,50.62,29.41,32.54.15,50-27.58,51.15-29.41m-101.81-.34c-1.12-1.83-18.79-29.44-51.33-29.06-32.2.37-49.27,27.8-50.44,29.75m-101.5-.45c1.18,1.95,18.36,29.3,50.56,29.51,32.55.21,50.1-27.48,51.22-29.31m-101.84.12c-1.13-1.83-18.8-29.43-51.34-29.06-32.2.37-49.26,27.8-50.43,29.76" transform="translate(703.26)" style="fill:none;stroke-miterlimit:10;stroke:url(#linear-gradient-12)"/><path d="M446.85,640.26c1.18-2,18.24-29.39,50.44-29.76,32.54-.38,50.21,27.23,51.34,29.06m.19.35c1.19,2,18.42,29.26,50.62,29.41,32.54.15,50-27.58,51.16-29.41m101.58-.35c-1.13-1.83-18.8-29.44-51.34-29.06-32.2.37-49.26,27.8-50.44,29.76m102-.35c1.19,2,18.42,29.26,50.62,29.41,32.54.15,50-27.58,51.16-29.41m101.59-.56c-1.13-1.83-18.8-29.44-51.34-29.06-32.2.37-49.27,27.8-50.44,29.75m-509-.35c1.18,1.95,18.42,29.26,50.62,29.41,32.54.15,50-27.58,51.15-29.41m-101.81-.34c-1.12-1.83-18.79-29.44-51.33-29.06-32.2.37-49.27,27.8-50.44,29.75m-101.5-.45c1.18,1.95,18.36,29.3,50.56,29.51,32.55.21,50.1-27.48,51.22-29.31m-101.84.12c-1.13-1.83-18.8-29.43-51.34-29.06-32.2.37-49.26,27.8-50.43,29.76" transform="translate(703.26)" style="fill:none;stroke-miterlimit:10;stroke:url(#linear-gradient-13)"/><path d="M436.85,640.26c1.18-2,18.24-29.39,50.44-29.76,32.54-.38,50.21,27.23,51.34,29.06m.19.35c1.19,2,18.42,29.26,50.62,29.41,32.54.15,50-27.58,51.16-29.41m101.58-.35c-1.13-1.83-18.8-29.44-51.34-29.06-32.2.37-49.26,27.8-50.44,29.76m102-.35c1.19,2,18.42,29.26,50.62,29.41,32.54.15,50-27.58,51.16-29.41m101.59-.56c-1.13-1.83-18.8-29.44-51.34-29.06-32.2.37-49.27,27.8-50.44,29.75m-509-.35c1.18,1.95,18.42,29.26,50.62,29.41,32.54.15,50-27.58,51.15-29.41m-101.81-.34c-1.12-1.83-18.79-29.44-51.33-29.06-32.2.37-49.27,27.8-50.44,29.75m-101.5-.45c1.18,1.95,18.36,29.3,50.56,29.51,32.55.21,50.1-27.48,51.22-29.31m-101.84.12c-1.13-1.83-18.8-29.43-51.34-29.06-32.2.37-49.26,27.8-50.43,29.76" transform="translate(703.26)" style="fill:none;stroke-miterlimit:10;stroke:url(#linear-gradient-14)"/><path d="M426.85,640.26c1.18-2,18.24-29.39,50.44-29.76,32.54-.38,50.21,27.23,51.34,29.06m.19.35c1.19,2,18.42,29.26,50.62,29.41,32.54.15,50-27.58,51.16-29.41m101.58-.35c-1.13-1.83-18.8-29.44-51.34-29.06-32.2.37-49.26,27.8-50.44,29.76m102-.35c1.19,2,18.42,29.26,50.62,29.41,32.54.15,50-27.58,51.16-29.41m101.59-.56c-1.13-1.83-18.8-29.44-51.34-29.06-32.2.37-49.27,27.8-50.44,29.75m-509-.35c1.18,1.95,18.42,29.26,50.62,29.41,32.54.15,50-27.58,51.15-29.41m-101.81-.34c-1.12-1.83-18.79-29.44-51.33-29.06-32.2.37-49.27,27.8-50.44,29.75m-101.5-.45c1.18,1.95,18.36,29.3,50.56,29.51,32.55.21,50.1-27.48,51.22-29.31m-101.84.12c-1.13-1.83-18.8-29.43-51.34-29.06-32.2.37-49.26,27.8-50.43,29.76" transform="translate(703.26)" style="fill:none;stroke-miterlimit:10;stroke:url(#linear-gradient-15)"/><path d="M416.85,640.26c1.18-2,18.24-29.39,50.44-29.76,32.54-.38,50.21,27.23,51.34,29.06m.19.35c1.19,2,18.42,29.26,50.62,29.41,32.54.15,50-27.58,51.16-29.41m101.58-.35c-1.13-1.83-18.8-29.44-51.34-29.06-32.2.37-49.26,27.8-50.44,29.76m102-.35c1.19,2,18.42,29.26,50.62,29.41,32.54.15,50-27.58,51.16-29.41m101.59-.56c-1.13-1.83-18.8-29.44-51.34-29.06-32.2.37-49.27,27.8-50.44,29.75m-509-.35c1.18,1.95,18.42,29.26,50.62,29.41,32.54.15,50-27.58,51.15-29.41m-101.81-.34c-1.12-1.83-18.79-29.44-51.33-29.06-32.2.37-49.27,27.8-50.44,29.75m-101.5-.45c1.18,1.95,18.36,29.3,50.56,29.51,32.55.21,50.1-27.48,51.22-29.31m-101.84.12c-1.13-1.83-18.8-29.43-51.34-29.06-32.2.37-49.26,27.8-50.43,29.76" transform="translate(703.26)" style="fill:none;stroke-miterlimit:10;stroke:url(#linear-gradient-16)"/><path d="M406.85,640.26c1.18-2,18.24-29.39,50.44-29.76,32.54-.38,50.21,27.23,51.34,29.06m.19.35c1.19,2,18.42,29.26,50.62,29.41,32.54.15,50-27.58,51.16-29.41m101.58-.35c-1.13-1.83-18.8-29.44-51.34-29.06-32.2.37-49.26,27.8-50.44,29.76m102-.35c1.19,2,18.42,29.26,50.62,29.41,32.54.15,50-27.58,51.16-29.41m101.59-.56c-1.13-1.83-18.8-29.44-51.34-29.06-32.2.37-49.27,27.8-50.44,29.75m-509-.35c1.18,1.95,18.42,29.26,50.62,29.41,32.54.15,50-27.58,51.15-29.41m-101.81-.34c-1.12-1.83-18.79-29.44-51.33-29.06-32.2.37-49.27,27.8-50.44,29.75m-101.5-.45c1.18,1.95,18.36,29.3,50.56,29.51,32.55.21,50.1-27.48,51.22-29.31m-101.84.12c-1.13-1.83-18.8-29.43-51.34-29.06-32.2.37-49.26,27.8-50.43,29.76" transform="translate(703.26)" style="fill:none;stroke-miterlimit:10;stroke:url(#linear-gradient-17)"/><line x1="1.5" y1="563.52" x2="0.5" y2="598.52" style="fill:none;stroke-miterlimit:10;stroke:url(#linear-gradient-18)"/><line x1="1.99" y1="703.88" x2="0.99" y2="738.88" style="fill:none;stroke-miterlimit:10;stroke:url(#linear-gradient-19)"/><path d="M643.06,30.47c1.17-1.95,18.23-29.38,50.43-29.75C726,.34,743.7,28,744.83,29.78m.19.34c1.19,1.95,18.42,29.26,50.62,29.42,32.54.15,50-27.58,51.16-29.42M897,.72c-32.2.37-49.26,27.8-50.43,29.75m101.77-.69C947.25,28,929.58.34,897,.72M541.18,29.91c1.18,1.95,18.42,29.26,50.62,29.41,32.54.15,50-27.58,51.15-29.41m-101.8-.35C540,27.73,522.35.13,489.81.5c-32.2.38-49.27,27.8-50.44,29.76m-101.5-.45c1.18,2,18.36,29.29,50.57,29.51C421,59.53,438.53,31.84,439.65,30m-101.84.13C336.68,28.3,319,.69,286.47,1.07c-32.2.37-49.26,27.8-50.43,29.76" transform="translate(703.26)" style="fill:none;stroke-miterlimit:10;stroke:url(#linear-gradient-20)"/><path d="M633.06,30.47c1.17-1.95,18.23-29.38,50.43-29.75C716,.34,733.7,28,734.83,29.78m.19.34c1.19,1.95,18.42,29.26,50.62,29.42,32.54.15,50-27.58,51.16-29.42M887,.72c-32.2.37-49.26,27.8-50.43,29.75m101.77-.69C937.25,28,919.58.34,887,.72M531.18,29.91c1.18,1.95,18.42,29.26,50.62,29.41,32.54.15,50-27.58,51.15-29.41m-101.8-.35C530,27.73,512.35.13,479.81.5c-32.2.38-49.27,27.8-50.44,29.76m-101.5-.45c1.18,2,18.36,29.29,50.57,29.51C411,59.53,428.53,31.84,429.65,30m-101.84.13C326.68,28.3,309,.69,276.47,1.07c-32.2.37-49.26,27.8-50.43,29.76" transform="translate(703.26)" style="fill:none;stroke-miterlimit:10;stroke:url(#linear-gradient-21)"/><path d="M623.06,30.47c1.17-1.95,18.23-29.38,50.43-29.75C706,.34,723.7,28,724.83,29.78m.19.34c1.19,1.95,18.42,29.26,50.62,29.42,32.54.15,50-27.58,51.16-29.42M877,.72c-32.2.37-49.26,27.8-50.43,29.75m101.77-.69C927.25,28,909.58.34,877,.72M521.18,29.91c1.18,1.95,18.42,29.26,50.62,29.41,32.54.15,50-27.58,51.15-29.41m-101.8-.35C520,27.73,502.35.13,469.81.5c-32.2.38-49.27,27.8-50.44,29.76m-101.5-.45c1.18,2,18.36,29.29,50.57,29.51C401,59.53,418.53,31.84,419.65,30m-101.84.13C316.68,28.3,299,.69,266.47,1.07c-32.2.37-49.26,27.8-50.43,29.76" transform="translate(703.26)" style="fill:none;stroke-miterlimit:10;stroke:url(#linear-gradient-22)"/><path d="M613.06,30.47c1.17-1.95,18.23-29.38,50.43-29.75C696,.34,713.7,28,714.83,29.78m.19.34c1.19,1.95,18.42,29.26,50.62,29.42,32.54.15,50-27.58,51.16-29.42M867,.72c-32.2.37-49.26,27.8-50.43,29.75m101.77-.69C917.25,28,899.58.34,867,.72M511.18,29.91c1.18,1.95,18.42,29.26,50.62,29.41,32.54.15,50-27.58,51.15-29.41m-101.8-.35C510,27.73,492.35.13,459.81.5c-32.2.38-49.27,27.8-50.44,29.76m-101.5-.45c1.18,2,18.36,29.29,50.57,29.51C391,59.53,408.53,31.84,409.65,30m-101.84.13C306.68,28.3,289,.69,256.47,1.07c-32.2.37-49.26,27.8-50.43,29.76" transform="translate(703.26)" style="fill:none;stroke-miterlimit:10;stroke:url(#linear-gradient-23)"/><path d="M603.06,30.47c1.17-1.95,18.23-29.38,50.43-29.75C686,.34,703.7,28,704.83,29.78m.19.34c1.19,1.95,18.42,29.26,50.62,29.42,32.54.15,50-27.58,51.16-29.42M857,.72c-32.2.37-49.26,27.8-50.43,29.75m101.77-.69C907.25,28,889.58.34,857,.72M501.18,29.91c1.18,1.95,18.42,29.26,50.62,29.41,32.54.15,50-27.58,51.15-29.41m-101.8-.35C500,27.73,482.35.13,449.81.5c-32.2.38-49.27,27.8-50.44,29.76m-101.5-.45c1.18,2,18.36,29.29,50.57,29.51C381,59.53,398.53,31.84,399.65,30m-101.84.13C296.68,28.3,279,.69,246.47,1.07c-32.2.37-49.26,27.8-50.43,29.76" transform="translate(703.26)" style="fill:none;stroke-miterlimit:10;stroke:url(#linear-gradient-24)"/><path d="M593.06,30.47c1.17-1.95,18.23-29.38,50.43-29.75C676,.34,693.7,28,694.83,29.78m.19.34c1.19,1.95,18.42,29.26,50.62,29.42,32.54.15,50-27.58,51.16-29.42M847,.72c-32.2.37-49.26,27.8-50.43,29.75m101.77-.69C897.25,28,879.58.34,847,.72M491.18,29.91c1.18,1.95,18.42,29.26,50.62,29.41,32.54.15,50-27.58,51.15-29.41m-101.8-.35C490,27.73,472.35.13,439.81.5c-32.2.38-49.27,27.8-50.44,29.76m-101.5-.45c1.18,2,18.36,29.29,50.57,29.51C371,59.53,388.53,31.84,389.65,30m-101.84.13C286.68,28.3,269,.69,236.47,1.07c-32.2.37-49.26,27.8-50.43,29.76" transform="translate(703.26)" style="fill:none;stroke-miterlimit:10;stroke:url(#linear-gradient-25)"/><path d="M311.13,817.9c2.07-3.46,32.25-51.95,89.18-52.61,57.53-.66,88.77,48.14,90.76,51.38m.34.61c2.1,3.45,32.57,51.74,89.5,52,57.53.27,88.47-48.75,90.44-52m179.6-.61c-2-3.24-33.23-52-90.76-51.38-56.93.66-87.11,49.15-89.18,52.61m180.28-.62c2.09,3.45,32.57,51.74,89.5,52,57.53.27,88.47-48.75,90.44-52m179.61-1c-2-3.23-33.23-52-90.76-51.38-56.93.66-87.1,49.15-89.17,52.62" transform="translate(703.26)" style="fill:none;stroke-miterlimit:10;stroke:url(#linear-gradient-26)"/><path d="M291.13,817.9c2.07-3.46,32.25-51.95,89.18-52.61,57.53-.66,88.77,48.14,90.76,51.38m.34.61c2.1,3.45,32.57,51.74,89.5,52,57.53.27,88.47-48.75,90.44-52m179.6-.61c-2-3.24-33.23-52-90.76-51.38-56.93.66-87.11,49.15-89.18,52.61m180.28-.62c2.09,3.45,32.57,51.74,89.5,52,57.53.27,88.47-48.75,90.44-52m179.61-1c-2-3.23-33.23-52-90.76-51.38-56.93.66-87.1,49.15-89.17,52.62" transform="translate(703.26)" style="fill:none;stroke-miterlimit:10;stroke:url(#linear-gradient-27)"/><path d="M271.13,817.9c2.07-3.46,32.25-51.95,89.18-52.61,57.53-.66,88.77,48.14,90.76,51.38m.34.61c2.1,3.45,32.57,51.74,89.5,52,57.53.27,88.47-48.75,90.44-52m179.6-.61c-2-3.24-33.23-52-90.76-51.38-56.93.66-87.11,49.15-89.18,52.61m180.28-.62c2.09,3.45,32.57,51.74,89.5,52,57.53.27,88.47-48.75,90.44-52m179.61-1c-2-3.23-33.23-52-90.76-51.38-56.93.66-87.1,49.15-89.17,52.62" transform="translate(703.26)" style="fill:none;stroke-miterlimit:10;stroke:url(#linear-gradient-28)"/><path d="M251.13,817.9c2.07-3.46,32.25-51.95,89.18-52.61,57.53-.66,88.77,48.14,90.76,51.38m.34.61c2.1,3.45,32.57,51.74,89.5,52,57.53.27,88.47-48.75,90.44-52m179.6-.61c-2-3.24-33.23-52-90.76-51.38-56.93.66-87.11,49.15-89.18,52.61m180.28-.62c2.09,3.45,32.57,51.74,89.5,52,57.53.27,88.47-48.75,90.44-52m179.61-1c-2-3.23-33.23-52-90.76-51.38-56.93.66-87.1,49.15-89.17,52.62" transform="translate(703.26)" style="fill:none;stroke-miterlimit:10;stroke:url(#linear-gradient-29)"/><path d="M231.13,817.9c2.07-3.46,32.25-51.95,89.18-52.61,57.53-.66,88.77,48.14,90.76,51.38m.34.61c2.1,3.45,32.57,51.74,89.5,52,57.53.27,88.47-48.75,90.44-52m179.6-.61c-2-3.24-33.23-52-90.76-51.38-56.93.66-87.11,49.15-89.18,52.61m180.28-.62c2.09,3.45,32.57,51.74,89.5,52,57.53.27,88.47-48.75,90.44-52m179.61-1c-2-3.23-33.23-52-90.76-51.38-56.93.66-87.1,49.15-89.17,52.62" transform="translate(703.26)" style="fill:none;stroke-miterlimit:10;stroke:url(#linear-gradient-30)"/><path d="M211.13,817.9c2.07-3.46,32.25-51.95,89.18-52.61,57.53-.66,88.77,48.14,90.76,51.38m.34.61c2.1,3.45,32.57,51.74,89.5,52,57.53.27,88.47-48.75,90.44-52m179.6-.61c-2-3.24-33.23-52-90.76-51.38-56.93.66-87.11,49.15-89.18,52.61m180.28-.62c2.09,3.45,32.57,51.74,89.5,52,57.53.27,88.47-48.75,90.44-52m179.61-1c-2-3.23-33.23-52-90.76-51.38-56.93.66-87.1,49.15-89.17,52.62" transform="translate(703.26)" style="fill:none;stroke-miterlimit:10;stroke:url(#linear-gradient-31)"/></svg>